<svg width="12" height="12" fill="none" xmlns="http://www.w3.org/2000/svg">
    <path d="M2.826 4.031v6.563c0 .36.26.656.577.656h5.192c.318 0 .577-.295.577-.656V4.03H2.826zm1.73 5.907H3.98V5.343h.577v4.593zm1.155 0h-.577V5.343h.577v4.593zm1.154 0h-.577V5.343h.577v4.593zm1.153 0h-.576V5.343h.576v4.593zM9.317 2.063H7.442v-.82a.53.53 0 0 0-.127-.348A.41.41 0 0 0 7.01.75H4.99a.41.41 0 0 0-.305.145.53.53 0 0 0-.127.347v.82H2.683a.41.41 0 0 0-.306.145.53.53 0 0 0-.127.348v.82h7.5v-.82a.53.53 0 0 0-.127-.348.41.41 0 0 0-.306-.144zm-2.452 0h-1.73v-.648h1.73v.647z" fill="#FF3C30"/>
</svg>
